/* XPM */
static const char *xpm_1[]={
"50 50 16 1",
"j c #353036",
"k c #73655c",
"n c #978d93",
"i c #b0a5a9",
"l c #b5955e",
"h c #cabbcb",
"# c #d4c5d4",
"a c #decfdb",
"b c #e6d7df",
"c c #ecdce3",
"d c #f0e1e6",
"m c #f1b661",
"e c #f4e5e8",
"f c #f7e8ea",
"g c #fbeced",
". c #fff0ef",
"..................................................",
"..................................................",
"#########aaaaaaaaabbbbbbbbccccccddddeeeeeefffffggg",
"aaaaaaaaabbbbbbbbbcccccccddddddeeeeeeefffffggggggg",
"..................................................",
"deeeeeeeeeeeeefffffffffffggggggggggggggggggggggggg",
"hhhhhhhhh########aaaaaaaabbbbbbcccccddddeeeeefffff",
"gggggggggggggggg.gggggggggggggg...................",
"..................................................",
"#########aaaaaaaaabbbbbbbbcccccdddddeeeeeefffffggg",
"aaaabbbbbbbbbbbbcccccccddddddeeeeeeeefffffgggggggg",
"..............ijjjjjjji...ijjjjjjji...............",
"dddddddeeeeeeijklmmmmljieijklmmmlkjifggggggggggggg",
"hhhhhhh#h###njllmmmmmlmjjjmmmmmmmmljnccdeeeeeffffg",
".......g.g.ijlmmljjjkmmmjmmmljjjlmmmjneg..........",
"...........jkmmkjjjjjjmmmmmjjjjjjkmmljieg.........",
"##########njmmkjknnnnjkmmmkjiinnkjkmmjjacdefffffgg",
"aabbbbbbbbjkmmjknnnnnkjmmmjknnnnnkjmmlj#bdffgggggg",
"..........jmmkjinnnnnnjlmmjnnnnnnnjkmmjhadf.......",
"cdddddddddjkmjknnnniiijlmljknniiiikjmkji#befgggggg",
"hhhhhhhh#hnjjknnnnniiijlmljknniiiiikjjkih#bdeffffg",
".........gdb#iiinihaa#jlmljnni#####hiiiihadg......",
".........gdb#hiih#addbjlmljnihabccbhhiih#adg......",
"hh########hhiiiiih#aa#jlmljnnh#bcba#hhhhhabdffffgg",
"abaabbbbbba##hhh#aabcajlmljnihaceddba###abdfgggggg",
"..........gfdcbcdef.gejlmljni#bf..gfddccdeg.......",
"cddddddddddcccbbccdeecjlmljnihadfffeeeddeffggggggg",
"hhhhhhh##########aaaa#jlmljnnh#accccddcddeeeeffffg",
".....................fjlmljnihbf..................",
".....................ejlmljnihbf..................",
"hh##########aaaaaaaaa#jlmljnii#bcdddddeeeeefffffgg",
"bbbbbbbbbbbccccccccdb#jlmljnihaceffffffggggggggggg",
"....................gejlmljnihbf..................",
"ccccccccdddddddddeeeecjlmljnihbdffgggggggggggggggg",
"hhhhhhh##########aaaa#jlmljnih#bcccddddeeeeeeffffg",
".....................fjlmljni#bf..................",
".....................gjlmljii#bf..................",
"hhhh##########aaaaaaaajjjjjnih#bccddddeeeeeeffffgg",
"bbbbbbccccccccccdddddcnjjjknihadffffffgggggggggggg",
".....................fc#hiiih#cf..................",
"bbccccccccccdddddddddca#hiiih#bdffffgggggggggggggg",
"hhhhhh##########aaaaaa#hiiiihhabcccddddeeeeeefffff",
".....................gfdba#abcfg..................",
"......................gedbbcceg...................",
"hhhhhh#########aaaaaaaaaaaaaabbccccddddeeeeeeffffg",
"bbbbbcbbcccccccccddddddddddddeeeffffffgggggggggggg",
"..................................................",
"bbcccccccccccddddddddeeeeeeeeefffffffggggggggggggg",
"hhhhhhh#########aaaaaaaabbbbbbcccccdddddeeeeefffff",
".................................................."};
