/* XPM */
static const char *xpm_10[]={
"50 50 16 1",
"h c #363034",
"i c #77655a",
"n c #8d8489",
"g c #a69ba0",
"k c #a98c53",
"j c #beb2b5",
"f c #cdbece",
"# c #d7c7d6",
"a c #e1d2db",
"m c #e8ae62",
"b c #e9dae1",
"c c #efe0e5",
"d c #f6e7ea",
"e c #fcedee",
"l c #ffc060",
". c #fff0ef",
"..................................................",
"..................................................",
"############aaaaaaaaaaabbbbbbbccccccccddddddddddee",
"aa#aaaaaaaaaaabbbbbbbbbcccccccccddddddddddddddeeee",
"..................................................",
"cddddddddddddddddddddddddddddeeeeeeeeeeeeeeeeeeeee",
"fffffffffff#########aaaaaaaabbbbbbccccccdddddddddd",
"eeeeeeeeeeeeeeeeeeeeeeeeeeeeeee...................",
"..................................................",
"f###########aaaaaaaaaabbbbbbbbcccccccdddddddddddee",
"aaaaaaaaababbbbghhhgbcccccccfihhhhifdddddddddeeeee",
"..............jhklhhee.....jhhllllhhg.............",
"cccccccccdddddhhllkhbccddd#hkllllllihjddeeeeeeeeee",
"ffffffffff###ghmmmmhgf#aaaihmmkhhkmmihabccdddddddd",
"eeeeeeeeeeeejhkllllhiabdeehllkhihhklkhbcde........",
"...........jhkllhklkhfgijehllhnjghhllh#acd........",
"ff#########hkmmhhhmmhihhhghmmhggghhmmhjfaccdddddde",
"aaaaaaaabbbhhkhhhhmmihhilhhmlhggihilkhgfabdeeeeeee",
"...........jhhhnghilkhhkllkllhhhhhllhhgj#ce.......",
"cccccccccccbb#jjgihmlhhklllllihhilllhngj#bdeeeeeee",
"fffffffffffffjggnnhkmhhkmkmmmmmmmmkhingjfacddddddd",
"..........edca#fjghilkhllhhillllkhhigggjace.......",
"...........dcba#ffhhllhllhihillhhhngggjface.......",
"ffff#########ffffjnhmmimmhihhkmmhinnggjfacdddddddd",
"aaaaaaaabbbbaaaaa#fhkmmmkhnihhlmkhiggjfabddeeeeeee",
".............eeeedbhhlllkhinihillihijfacde........",
"ccccccccccccccdddcbjhlllihnnnihkllhhj#acdeeeeeeeee",
"fffffffff##########jhmmmhhingnihmmmhnfabcddddddddd",
"..................dbhkllhhngjjjhhllih#bde.........",
"..................dchillhhnjjfjnhkllhnace.........",
"ffff###########aaaa#himmhhngjffjihmmihfaccdddddddd",
"aababbbbbbbbbbbbbcbbnhmmhhngj###jhilkhjabddeeeeeee",
"...................dbhllhhnj#abb#hhllhj#bd........",
"bbbbccccccccccccccdcahllhhngfabbaihllhjfacdeeeeeee",
"fffffffff#########a#fhmmhhngjjnj#ihmmhgj#bcddddddd",
"...................echllihnjnhihhhklkhgj#ce.......",
"....................dhklihgjhilkikllhhgj#bd.......",
"fffff###########aaaa#hkmihnghkmmmmmihigjfacddddddd",
"bbbbbbbbbbbbbcccccccbhkmihgjnhkllkhhiggj#bdeeeeeee",
"....................dghhhigjfnhhhhhnggjface.......",
"bbbbbbbbbbccccccccccbafjgggjjfffjgggggjfacdeeeeeee",
"ffffffffff########aa#fjjgggjjfjjgggnggjfabcddddddd",
"....................eda#fjj#aaafjjgjjf#bcd........",
"....................edca##aabbaaffjff#bcde........",
"ffffffff#########aaaaa##ff###aa#ffff#aabccdddddddd",
"bbbbbbbbbbbbbcccccccccbbbbbbcccbbbbbbcdddeeeeeeeee",
".......................eeeeee.eeedeeee............",
"bbbbbbbbbbccccccccccccddddddddddddddddddeeeeeeeeee",
"fffffffff#f########aaaaaaaabbbbbbccccccccddddddddd",
".................................................."};
