/* XPM */
static const char *xpm_11[]={
"50 50 16 1",
"j c #322d34",
"l c #6d5e5f",
"k c #948b8e",
"i c #b4a9ad",
"m c #bd995a",
"h c #ccbdcf",
"# c #d6c6d6",
"a c #e0d1dc",
"b c #e7d8e0",
"c c #eddde4",
"d c #f1e2e6",
"e c #f5e6e9",
"f c #f8e9eb",
"g c #fcedee",
"n c #ffc060",
". c #fff0ef",
"..................................................",
"..................................................",
"###########aaaaaaaaabbbbbbbccccccdddddeeeeefffffff",
"aaaaaaaaaaabbbbbbbbccccccccdddddeeeeeeeffffffffggg",
"..................................................",
"deeeeeeeeeeeeeeeeeeffffffffffffggggggggggggggggggg",
"hhhhhhhhhh#########aaaaaaabbbbbbccccddddeeeeeeefff",
"ggggggggggggggggggggggggggggggg...................",
"..................................................",
"###########aaaaaaaaabbbbbbcccccccddddeeeeeefffffff",
"aaaaaaaabbbbbbbbbcccccccccddddeeeeeeeeffffffffgggg",
"..................................................",
"dddddddddeeeeeeeeeeeeeefffffffffffgggggggggggggggg",
"hhhhhhhhh#########aaaaaaabbbbbbcccccddddeeeeeeefff",
"gggggggggg........g...............................",
"................ijjji.....ijjig...ijji............",
"h############aakjjlljkaakjjlljkcdkjjmjddeeeeefffff",
"aaaabbbbbbbbbbkjlnnnlj#kjjnnnljckjjnnjddeefffggggg",
".............ijmnnnnljkjlnnnnmjkjlnnnjcdef........",
"cccccddddddaljmnnnjmljjlnnnjmmjjlnnnlj#acefggggggg",
"hhhhhhhhh##ljmmmmjjmljknmmjjlmjmnnnjjkih#bdeeeffff",
"..........gjnnnmjljmnmnnmjjjlnmnnmjjliihadf.......",
"...........jnnmjkkjmnnnmjlkjlnnnmjjlkkihadf.......",
"hhhh#######jmljlkkjjmmljlkkjjmmljlkkkkih#bdeefffff",
"aaaababbbbbjljlkkkljjjjlllkljjjjlklljlihadeffggggg",
"..........gklkiiljjjjkklkljjjjlklkljljhacfg.......",
"cccccdddddcbhhljjmnmjjkkljlmnjjkkljlnj#bcegggggggg",
"hhhhhhhhh#hhiljjmmmmljljjmnnmmjkljmnnj#abcdeeeefff",
"..........gdijjnnnmnljjjmnnmnmjljmnnmjabdfg.......",
"..........gijlnnnjjmljjnnnmjlmjjnnnmjk#abeg.......",
"hhhh#######jmmmmjjjlmlnmnljjlmlnnnmjliihabdeefffff",
"abbbbbbbbbbjnnmjjljmnnnnljljlnnnnljliiihacefgggggg",
"...........jnmjlkkjlnnmjjlkjlnnnjjlkiiihadg.......",
"cccccccccccjmjlikkjjljjjllljjjjjjlkkkii#bdfggggggg",
"hhhhhhhhh#hkjlkkklljjjjlllkljjjlllkkkih#aceeeeefff",
"..........fdb#hiiiikkkkkkkkkkkkkkkkkihabeg........",
"..........fdb#hiiiihikkkkkiiiikkkkiihabeg.........",
"hhhhh######hhiiiihiiiikkiiiihiiikiihhabcdeeeeeffff",
"bbbbbbbbccbaaa####a##hhihh#a##hhhhhabcefffgggggggg",
"...........gfeddeeedcbabbbdddcbaabbdfg............",
"bbbcccccccccccbbccccbbbbbccdcccbbcddfffffggggggggg",
"hhhhhhhhh#########aaaaaaaabbbbbbbbccddddeeeeeeffff",
"..................................................",
"..................................................",
"hhhhhhh##########aaaaaaabbbbbbccccccddddeeeeeeffff",
"bbbbbbbbbccccccccccddddddeeeeeeeeeffffffffgggggggg",
"..................................................",
"bbbcccccccccccccddddddeeeeeeeeeefffffffffggggggggg",
"hhhhhhhhh##########aaaaaabbbbbbccccccddddeeeeeffff",
".................................................."};
