/* XPM */
static const char *xpm_12[]={
"50 50 16 1",
"j c #343035",
"k c #7b6b63",
"i c #a09497",
"n c #beb2b6",
"h c #ccbdd0",
"# c #d5c6d4",
"m c #dca661",
"a c #e1d2dc",
"b c #e8d9e1",
"c c #eddee4",
"d c #f1e2e6",
"e c #f4e5e9",
"f c #f8e9ea",
"g c #fbeced",
"l c #ffc060",
". c #fff0ef",
"..................................................",
"..................................................",
"############aaaaaaaaabbbbbbbcccccdddddeeeeffffffgg",
"aaaaaaaaaaabaabbbbbbbccccccdddddeeeeeeffffffffgggg",
"..................................................",
"deeeeeeeeeeeeefffffffffffffffggggggggggggggggggggg",
"hhhhhhhhhh#########aaaaaaaabbbbbbcccddddeeeeefffff",
"ggggggggggggggg....gggggggggggg...................",
"..................................................",
"###########aaaaaaaaaabbbbbbccccccddddeeeeeffffffgg",
"aaaaaaaaabbbijjjibbcccccccddddeeijjjjifffffffggggg",
"............klllji.............ijmllkkeg..........",
"dddddddddeecijllmjiddefffffffgijkllkjidefggggggggg",
"hhhhhhhhh###hjkmmkji##aaaabbbbjjlmkji#aacddeefffff",
"gggggggggg.ggijklljjcegg.....ijmlmjih#aceg........",
"............fcijmlmjiceg.....jklljjnnn#adf........",
"h############hnkjmmkjh#abbbbijmlkjkiinh#bdeffffffg",
"aaaaaabbbbbbaahnjmmmjk#acdddjklljkiiinhadefggggggg",
"............geb#jjllkj#bfg.njllkjiiinnacfg........",
"cccccddddddddca#kjmlmjn#bdfjklljkiiinhacfggggggggg",
"hhhhhhhhh#####hhnjkmmjknhaajmmkjiiiin#acdeeeefffff",
"..............gdakjllkjhadgjllkjiinnacfg..........",
"...............ijjjllkjjjjjjlljjjkn#beg...........",
"hhhh#########ijjjjjimmjjjjjklmjjjjji#cdeeeefffffff",
"aaaaaaabbbbbbjklmlmlmmmlllllllllllmjadeffffggggggg",
".............jklllllllllllllllllllmjbdfg..........",
"cccccddddddddijjjjjmlmjjjjjklljjjjjk#bdfgggggggggg",
"hhhhhhhhh####hhijjjmmkjjjjjjmmjjjjinn#acdeeeefffff",
"............gfb#hkjllkjkkkkjlljjkkinnacfg.........",
"............gfcanjklljjjkkkjmlkjkkiihacfg.........",
"hhhh##########hnnjimijjkkkkjklmjjkinn#acdeefffffff",
"aabbbbbbbbbbbbaaijmljjkkkiikjmlkjiin#acefggggggggg",
".............gfijmlmjkkiinnnjklljkn#bdfg..........",
"ccccccccccddddcjkmljjkiiinhhkjllkjn#bdfggggggggggg",
"hhhhhhhhh#####ijmmijkkiinhh#njkmmjkhabddeeeeefffff",
".............ijmlljkiiin#bddaijmlljibfg...........",
"............njkllkjiiinhadffb#kjllmjidf...........",
"hhhhh#######jjmmkjkiiiin#aaa#hnjkmlkjibcdeeeffffff",
"bbbbbbbbbbccjlmmjkiiinh#bcddca#kjkllkjacefgggggggg",
"............ijjjkiiinnacfg..gda#kjjjjiacfg........",
"bbbbbbccccccba#nniiinh#bcdeeecb#nniiin#adfgggggggg",
"hhhhhhhhh###hhniiiiinh#aaabbbaa#hniinnn#bcdeefffff",
"...........gfbahnnn#acfg......fda#hnnn#bdf........",
"...........gfdba##aaceg.......gfcb####aceg........",
"hhhhhhh######hhnhnhh#aaaabbbbbbbaa####aacdeeefffff",
"bbbbbbbbbbcbbbbaaabbcddddeeeeeeeddcbbbcdefgggggggg",
"..............ggggg...............ggffgg..........",
"bbbbbbccccccccccddddddeeeeeeeeffffffffffgggggggggg",
"hhhhhhhhh##########aaaaaaabbbbbbcccccddddeeeefffff",
".................................................."};
