/* XPM */
static const char *xpm_2[]={
"50 50 16 1",
"h c #343035",
"j c #74675f",
"l c #90868b",
"g c #a89da1",
"k c #b28d59",
"m c #beb2b6",
"f c #cdbdcf",
"# c #d6c6d4",
"a c #e1d2db",
"b c #e9dae1",
"i c #f0b560",
"c c #f0e0e5",
"d c #f6e7ea",
"e c #fcedee",
". c #fff0ef",
"n c #fff1f0",
"..................................................",
"..................................................",
"############aaaaaaaaaaabbbbbbbccccccccddddddddddee",
"aa#aaaaaaaaababbbbbbbbbcccccccccddddddddddddddeeee",
"..................................................",
"cddddddddddddddddddddddddddddeeeeeeeeeeeeeeeeeeeee",
"fffffffffff########aaaaaaaaabbbbbbccccccdddddddddd",
"eeeeeeeeeeeeeeeeeeeeeeeeeeeeeee...................",
"..................................................",
"f##########a#aaaaaaaaabbbbbbbbcccccccdddddddddddee",
"aaaaaaaaababbaghhgbbbcccccccccdghhhgdddddddddeeeee",
"..............hiihge...........hjiih.e............",
"cccccccccdddddhkiihgccddddddddghiikhccddeeeeeeeeee",
"fffffffff#####lhiikhl#aaaaabghhiiihlaabbcddddddddd",
"eeeeeeeeee...eehkiiihhgee.ghhjiiihl#abcde.........",
".............edghjiiikhhhhhjiiiihlmffabde.........",
"ff#############flhhiiiiiiiiiiikhlggmmfabcdddddddde",
"aaaaaaaabbbbbba#fjhjiiiiiiiiikhhgggmm#acdddeeeeeee",
"..............dclhiiiikijkiiiikhjggm#acd..........",
"cccccccccccccccghiiikhhhhhhhkiiihjmm#bcdeeeeeeeeee",
"ffffffffff####lhiikhhjjjllljhhiiihjf#bbcdddddddddd",
".............ghiikhjllllllllljhiikhlbde...........",
".............hkiihlgglllllgllljhiijhbde...........",
"ffff#########hiikhglllllgggggllhkikh#abcdddddddddd",
"aaaaaaaabbbbghiihjgggggmmmmmmmgjhiihfabcdddeeeeeee",
"............hjikhmggmm##abbba##mhiihl#bde.........",
"cccccccccccdhjikhgggmf#bbcccbbafhkijhfabdeeeeeeeee",
"fffffffff##fhkikhllgmf#aaaaabaa#hkihhmfaccdddddddd",
"............hjikhgmm#cd.......dchiijhm#bd.........",
"...........ehjiihgmfade.......eghiihlm#ad.........",
"ffff########lhiihjgmf#aabbbbbbbhjikhgmm#bcdddddddd",
"aababbbbbbba#hkikhjm#bcccccdddghiikhgmfacdeeeeeeee",
"...........eclhiijhlad.......ghkiihlgm#ade........",
"bbbbcccccccbafhkiijhlbcdddddghkiijhggmfaceeeeeeeee",
"fffffffff##ffmjhkikkhhlaaaghhkiikhjggmfaccdddddddd",
"............db#lhkiiikhhhhhkiiikhjggmface.........",
"............ecafjhjiiiiiiiiiiijhjgggm#ade.........",
"fffff#########fmgjhhjkiiiiikhhhjglggmfabcddddddddd",
"bbbbbbbbbbbbbba#fggjhhhhhhhhlmgglggmfabddeeeeeeeee",
".............edcafmgglggmmmmmgggggmfacde..........",
"bbbbbbbbbbccccbaa#mmgggggggggggggmf#bcddeeeeeeeeee",
"fffffffff#######ffmmgggggggggggmmm#aabccdddddddddd",
"................edca#ffmmmmffff#abcde.............",
".................edcbba#a####aabccde..............",
"ffffffff##########a#####f#####aabbccccccdddddddddd",
"bbbbbbbbbbbbbccccccccccbbcbccccddddddddeeeeeeeeeee",
"..................................................",
"bbbbbbbbbbccccccccccccddddddddddddddddddeeeeeeeeee",
"fffffffff##########aaaaaaaabbbbbbbcccccccddddddddd",
"n.nnnnnnnn.nnnnnnnnn.nnnnnnnnnnnnnnnnnnnnnnnnnnnnn"};
