/* XPM */
static const char *xpm_3[]={
"50 50 16 1",
"i c #322e33",
"g c #776752",
"n c #7e757f",
"f c #948a90",
"h c #a69b9f",
"k c #b6aaaf",
"j c #b7915a",
"m c #c5b9be",
"e c #cdbdd1",
"# c #d5c6d4",
"a c #e1d2dc",
"b c #e9dae1",
"c c #f0e0e6",
"l c #f4b761",
"d c #f7e7ea",
". c #fff0ef",
"..................................................",
"..................................................",
"############aaaaaaaaaaabbbbbbbccccccccdddddddddddd",
"aa#aaaaaaaaaaabbbbbbbbbcccccccccddddddddddddddd...",
"..................................................",
"cdddddddddddddddddddddddddddddd...................",
"eeeeeeeeeee########aaaaaaaaabbbbbbcccccccddddddddd",
".d.d..............................................",
"..................................................",
"e##########aaaaaaaaaaabbbbbbbbcccccccddddddddddddd",
"aaaaaaaaaabafghbbbbbbccccccccccddddhghdddddddd....",
"............ijiiik..............hiiili............",
"cccccccccdddilllgiiiihdddddhiiiiijlllidddd........",
"eeeeeeeeee##ijjjlljjgiiiiiiiggjllllljiabbccddddddd",
"............hiijllllllllllllllllllgiifabcd........",
"............dcfiiigllllllllllljiiiifme#abd........",
"ee###########emkhnijljiiiiiijlgikkhhkkm#abcddddddd",
"aaaaaaaabbbaa#mkkhijljihkkkijlgifhhhhkm#acddd.....",
"............dca#mkijljifhhkijlgiffhhkm#acd........",
"ccccccccccccbba#mkijljinfhhijlginfhkm##bcdd.......",
"eeeeeeeeee#e#eeemkijljinffhijlgiffhkm#abccdddddddd",
"..............ddcbijljifhkmijlgifhm#bddd..........",
"................dcijljifhmmijlgihkmad.............",
"eeee###########aa#ijljifhkmijlgifkm#bcdddddddddddd",
"aaaaaaaabbbbbbbbbaijljifkm#ijlgifkmacdddddddd.....",
".................dijljihk#aijlgihk#bd.............",
"cccccccccccccccccbijljihkm#ijlgihkmad.............",
"eeeeeeeee#########ijljifhkeijlgifhm#bcccdcdddddddd",
".................dijljihk#aijlgihk#bd.............",
".................dijljihk#aijlgihk#bd.............",
"eeee#########a#aa#ijljifhkeijlgifkm#bcdddddddddddd",
"aababbbbbbbbbbbbbbijljifkm#ijlgifkmacddddddd......",
".................dijljiiiiiijlgihk#bd.............",
"bbbbccccccccccchiiillllllllllljiiiifcdd...........",
"eeeeeeeee###fiiijljljlllllllllllljgiihcccddddddddd",
"............ijlllllljgiiiiiigjjllllljidd..........",
"............illljiiiiignfhkniiiiijlllibdd.........",
"eeeee#######ijgiinhffnnnfffffnnngiigli#abcdddddddd",
"bbbbbbbbbbbbhiinmkhfffnffhhhhfffnfgiinmabcd.......",
"............cbammkhhhhhhkkmmkkhhhhhhkkm#bd........",
"bbbbbbbbbbcba#ekkkkhkkkkmmmmmmmkkkkhkkm#acd.......",
"eeeeeeeee##eemmkhhhkkkmmmeeeeemmmmkkkkm#abcddddddd",
"............dcba###aabbccddddccbbaa###abcd........",
"............ddcbbbbccddd......dddccbbbbcdd........",
"eeeeeeee############aaaaaabbbbbbbbbbbbbbccdddddddd",
"bbbbbbbbbbbbbbbbbccccccccddcdddddddddddddd........",
"..................................................",
"bbbbbbbbbbccccccccccccddddddddddddddddddd.........",
"eeeeeeeee##########aaaaaaaabbbbbbbccccccdcdddddddd",
".................................................."};
