/* XPM */
static const char *xpm_4[]={
"50 50 16 1",
"f c #332f34",
"g c #7b6b5f",
"k c #8b8188",
"l c #9e9399",
"e c #a99ea3",
"h c #b2915c",
"n c #b4a9ac",
"m c #c2b6b9",
"d c #cdbdd1",
"# c #d6c7d3",
"a c #e2d3dd",
"j c #e3ac62",
"b c #ecdde3",
"c c #f6e7e9",
"i c #ffc060",
". c #fff0ef",
"..................................................",
"..................................................",
"############aaaaaaaaaaaabbbbbbbbbbbccccccccccccccc",
"a#a#aaaaaaaaaaaaabbbbbbbbbbbbcccccccccccccccccc...",
"..................................................",
"ccccccccccccccccccccccccccccccc...................",
"ddddddddddd#########aaaaaaaaaabbbbbbbbbbcccccccccc",
".c.c..............................................",
"..................................................",
"d###########aaaaaaaaaaaabbbbbbbbbbcccccccccccccccc",
"aaaaaaaaaaaaaabbbbbbbbbbbbbbcccccccccccccccccc....",
"..................efffffffffffe...................",
"bbbbcccccccccceffffghhhiiijhhgfffec...............",
"dddddddddd##kffghjjjjjjjjjjjjjjjhfflbbbccccccccccc",
"...........efhiiiiijhfgffffgghjiiiiffe............",
"..........efiiiiihfffffkmmkffffffjiihfec..........",
"dd#######lfjjjjjjjjhffglleeeeeeegffjijfbbccccccccc",
"aaaaaaaalfjjjgffffhjjgflleeeelleengfgifabbccc.....",
"........fhiiffkelgfhiifgenmmnnnnnnnkffkabcc.......",
"bbbbbbbbfjjgfnllkkffhijfnnmmmmmmmmmnnmm#abcc......",
"ddddddddfjjfgkkkkkkffjjfenmmdmkffffkmnmm#abccccccc",
"........fiifnelleeeefiifm#alfffhhhgffkd#abc.......",
"........fiifgeenmmmkfiifm#lfhiiiiiiijfk#bbc.......",
"dddd###dfhjhfglenmkfhjhfekfhjjjfffgjijfkabbccccccc",
"aaaaaaaakfjjhffffffgjjfgefgjigfkdkffhiiflbccc.....",
".......cbkfiiihgghiiihfenfjihfkmmnnkfjihfbcc......",
"bbbbbbbba#kfhjijijijffgeefiifknnennegfiifabcc.....",
"ddddddddmnegfffgggffglllefjjfellleeeefjjfd#bbccccc",
"........cb#mnngfffgnneenmfiifgeenmmmkfiifm#bc.....",
"........cba#mnneeeeeeenmmfiihfgnm##kfhiifm#ab.....",
"dddd#####dkffgllllklllenmfgjjgffkdlfhjigfnm#abcccc",
"aaaaaababafjgffgeeeennm##kfgiijgfffjiijfgem#ac....",
"..........fiiigffkmm##abbakffhiiiiiiiifgenm#bc....",
"bbbbbbbbbblfgijjgffffffffffffffhiiiihfgelnm#bc....",
"dddddddddddkffhjjjjhhgggggghhjjjjjjffglllnm#accccc",
"..........cbakffhjiiiiiiiiiiiiiihffglllenm#bc.....",
"..........cba#mgffffgghhhhhggffffgkklllemdabc.....",
"ddddd#####ddmneelllgfffffffffgkggkkkklenm#abcccccc",
"aaaabbbbbbaa#dmneeeeeellllllkkkkkkkleemd#abcc.....",
"...........cba##mmnnneelllllllllllenmm#abc........",
"bbbbbbbbbbbbba##dmmmnneellllleeennmm#aabccc.......",
"dddddddddd####dddmmmnnneeeeeennmmmd##abbbccccccccc",
"...............cccbbaa#########aabbccc............",
"..................ccccbbbbabbbbcccc...............",
"dddddddd##########aaaaaaaaaaaaabbbbbbbcccccccccccc",
"aaabbbbbbbbbbbbbbbbbbbccbccccccccccccccccc........",
"..................................................",
"bbbbbbbbbbbbbbbbbbbcccccccccccccccccccccc.........",
"dddddddddd##########aaaaaaaaabbbbbbbbbbccccccccccc",
".................................................."};
