/* XPM */
static const char *xpm_5[]={
"50 50 16 1",
"i c #332f35",
"k c #806f69",
"h c #a59a9f",
"j c #ab8a53",
"n c #beb2b6",
"g c #cdbdcf",
"# c #d6c7d5",
"a c #e2d2db",
"l c #e5af61",
"b c #e9dae1",
"c c #f0e1e5",
"d c #f5e6e9",
"e c #f9eaeb",
"f c #fcedee",
"m c #ffc060",
". c #fff0ef",
"..................................................",
"..................................................",
"############aaaaaaaaaaabbbbbbbccccccccdddddeeeeeee",
"aa#aaaaaaaaaaaabbbbbbbbcccccccccdddddddeeeeeeeefff",
"..................................................",
"cddddddddddddddddddeeeeeeeeeeeefffffffffffffffffff",
"ggggggggggg#########aaaaaaaabbbbbbccccccdddddddeee",
"fffffffffffffffffffffffffffffff...................",
".....................hiiiiiih.....................",
"g###########aaaaaahiiijjjjjjiiihcccccddddddeeeeeee",
"aaaaaaaaabababbbbhiklllllllllmjihcddddeeeeeeeeffff",
"................hilmmmlkkkkjmmmmihef..............",
"cccccccccddddddhilmlliiiiiiiikmmmihcdeffffffffffff",
"gggggggggg#####iklljikhhhhhhkiilllihabccdddddddeee",
"ffffffffff.....ilmliknhhhhhhhhkimmjibdf...........",
"...............immkihhhhhhhhhhhijmmiabdf..........",
"gg###########a#illikhkhhhhhhhhhkillik#acdddddeeeee",
"aaaaaaaabbbbbbbillikkhhhnnggnnnnillkigabdeeeefffff",
"..............eimmjihhngaabbba#gijmjigace.........",
"ccccccccccccccbijmlikhn#abcccbb#ijmjingaceffffffff",
"gggggggggg#####killkihng#aabbba#ijlkihn#bcddddeeee",
"..............ebijmmik#be.....fdimmikhg#ce........",
"..............ebhimmlikbdf.....eimmihnn#ce........",
"gggg###########gnkillkig#abbbbbhillihhngacdddeeeee",
"aaaaaaaaabbbbhiiikijllik#bcccddilmjihhn#bdeeefffff",
"............himmmiiimmliabef...immikhngacf........",
"ccccccccccchimllkkikimlikabcdehimmihhngaceffffffff",
"ggggggggg##ijljiiikhijlkin#abbilljihhngabddddddeee",
"...........immih#gnnijmjigace.immiknngace.........",
"...........immiknnnnilmjin#bdhimminhngacf.........",
"gggg#######illjihhhkillkihngaikljihhng#bdddddeeeee",
"aababbbbbbaiklliiiiilllikhn#aijmkihnn#adeeeeffffff",
"..........ehilmmmjmmmmkihhn#cijmiihngacf..........",
"bbbbccccccbakikllmlmliikhhn#aijmjihngaceffffffffff",
"ggggggggg#ggnkiiiiiiikhkhhng#iklliknn#bcdddddddeee",
"..........fcagnhhhnnnhhhhngachimmjik#be...........",
"..........fdb#nnnhhhhhhhngabcbijmmkikbd...........",
"ggggg######ggnnhhhhhhhhhnn#aa#killljihacddddddeeee",
"bbbbbbbbbbbbaa#gnnnnnnng#abccb#kimmmmiacdeffffffff",
"............fdcbaa###aabbdefeda#kijmikacdf........",
"bbbbbbbbbbcccbbaaaaaaaabbccddca#nkiikngacdefffffff",
"ggggggggg#############aaaaabbaa#nhhhhhn#acddddeeee",
".............................fecagnhnngace........",
"..............................edbaggng#ace........",
"gggggggg#########aaaaaaaaabbbbbba##ggg#abcddddeeee",
"bbbbbbbbbbbbbccccccccccccdddddddccbaaabbcdefffffff",
".................................eeddddef.........",
"bbbbbbbbbbccccccccccccddddddddddeddddddeefffffffff",
"gggggggggg#########aaaaaaaabbbbbbbccccccddddddeeee",
".................................................."};
