/* XPM */
static const char *xpm_6[]={
"50 50 16 1",
"i c #2e2a2f",
"m c #77665b",
"h c #998f94",
"k c #b4945e",
"j c #b7abb0",
"g c #ccbdcf",
"# c #d6c6d5",
"a c #e0d1db",
"l c #e8ad62",
"b c #e8d8e0",
"c c #eddee4",
"d c #f2e3e7",
"e c #f6e7ea",
"f c #fbeced",
"n c #ffc060",
". c #fff0ef",
"..................................................",
"..................................................",
"###########aaaaaaaaabbbbbbbcccccccdddddeeeeeeeefff",
"aaaaaaaaaaabbbbbbbbcbcccccccdddddddeeeeeeeefffffff",
"..................................................",
"dddddddddeeeeeeeeeeeeeeeefffffffffffffffffffffffff",
"gggggggggg########aaaaaaaabbbbbbccccccddddeeeeeeee",
"fffffffffffffffffffffffffffffff...................",
"..................................................",
"##########aaaaaaaaaabbbbbbccccccccdddddeeeeeeeefff",
"aaaaaaaabbabbbhiihchiiiihhiiiihjiiiiiheeeeffffffff",
".............jiklimiknnmiiknnkiimnnnkijf..........",
"cddddddddddehiknnmiknnnnimnnnniknnnnnkideeffffffff",
"ggggggggg###imlllmmlllllillkllmlliimnliabcddeeeeef",
"ffffff..fffjinnknknnimnnnnminnnnihiinni#bde.......",
"..........jiknmknnniimnnnkiinnnimjimnnig#bef......",
"g#########imlkikllmiimllkimillmihhiklkijg#bdeeeeff",
"aaaabbbbbbilliiklkiiimlliimilnimmminnimjj#beffffff",
"..........inmiiknmimimnnimminnimhiknnihjg#cf......",
"cccccccddchiimiknmimimlnimmilnihmilnmihjj#beffffff",
"ggggggggggggjhiklmimimllimmillihimlkimhjj#bdeeeeef",
".........fdb#giknmimimnnihhinniminnimjjjgadf......",
".........fdbagiknmihimnnihhinniiknmijhjj#be.......",
"gggg######gggjiklmimimllihhillimnkimhhjj#aceeeeeff",
"aaaababbbbaaa#iklmihimllihjillknnimhjjjgacefffffff",
"..........ffeciknmihimnnihjinnnnimhjjjgace........",
"cccccccdddddcciknmihimnnihjinnlkihhhjj#adeffffffff",
"ggggggggg####giklmihimllihmillkimhhhjg#bcdeeeeeeef",
".............fiknmihimnnihimnnimhhhjgacef.........",
".............eiknmihimnniminnnihhhjgacef..........",
"gggg##########iklmihimlliillllimhhjg#bcdeeeeeeeeff",
"abbbbbbbbbbbcbiklmihimllimnklnihhjj#bdefffffffffff",
".............fiknmihimnninkinnihhj#cef............",
"ccccccccccccdbhiiimhmiiikniiiimhjg#cefffffffffffff",
"ggggggggg####ggjhhhhhhmilmihmhhhjg#bcdddddeeeeeeef",
".............fcagjjjjjiknimhhhhjg#ce..............",
".............fda#ggjggiknihhhhjj#bdf..............",
"ggggg##########ggjjjgjimlimhhjjg#abcdddddeeeeeeeff",
"bbbbbbbbbcccccbaa#a##aimlmihjjg#bcdeeeffffffffffff",
"..............ffeeddedhiiimjg#bdeff...............",
"bbbccccccccccccccccccba#gjjjg#bdeeeeffffffffffffff",
"ggggggggg########aaaaa#gjjjjg#abcccccddddddeeeeeee",
".....................fdba#g#ace...................",
".....................fecbaaacdf...................",
"ggggggg#########aaaaaaa#####aabcccccddddddeeeeeeef",
"bbbbbbbbbcccccccccccdccccbbccddeeeeeeeffffffffffff",
"........................fffff.....................",
"bbbccccccccccccccdddddddddeeeeeeeeeeefffffffffffff",
"ggggggggg#########aaaaaaabbbbbbcccccccddddeeeeeeef",
".................................................."};
