/* XPM */
static const char *xpm_7[]={
"50 50 16 1",
"j c #322e34",
"k c #716257",
"m c #8e838a",
"i c #a69994",
"n c #c1b5b9",
"h c #cdbdd1",
"# c #d7c7d7",
"a c #e2d2de",
"l c #e4b060",
"b c #e8d9df",
"c c #eddee5",
"d c #f1e2e6",
"e c #f4e5e8",
"f c #f7e8ea",
"g c #fbeced",
". c #fff0ef",
"..................................................",
"..................................................",
"############a#aaaaaaaaabbbbbcccccdddddeeeefffffggg",
"a#aaaaaaaaaaaabbbbbbbccccccdddddeeeeeefffffggggggg",
"..................................................",
"deeeeeeeeeeeeefffffffffffggggggggggggggggggggggggg",
"hhhhhhhhhhh##########aaaaaaabbbbbcccddddeeeeefffff",
"gggggggggggggggggggg.gggggggggg...................",
"..................................................",
"h############aaaaaaaaabbbbbccccccddddeeeeefffffggg",
"aaaaaaaaaabbbbbbbbbcccccccddddeeeeeeefffffgggggggg",
"..................................................",
"dddddddddeeeeeeeeeeffffffffffggggggggggggggggggggg",
"hhhhhhhhhh##########aaaaaaabbbbbccccddddeeeeeffffg",
"gggggggggg........................................",
"..............................g...................",
"hh#############aaaaaijjjjjjjibbccdddddeeeeefffffgg",
"aaaaaaaabbbbbbbcccijjkilllikjicdeeefffffgggggggggg",
".................ijkllllllllljifgg................",
"cccccddddddddddddjklllmkkklllljiceffgggggggggggggg",
"hhhhhhhhhh######mjllijjjjjjjllljmabccdddeeeeeffffg",
"................jllljmiimmijkllkjbdfg.............",
"...............ijllkjnmkkkmkjllljabeg.............",
"hhhh####mjjjjjjjklljkmkkjkkmjklljjjjjjjjieefffffgg",
"aaaaaaabjiiiiiiillijmkkjkkkmkjlliilililmjefffggggg",
"........jlllllllllkjmmkjkkkmijlllllllllljefgg.....",
"cccccddejkkkkkkkkkkjmmkkkkmmijkkkkkkkkkkjabdfggggg",
"hhhhhhhhmjjjjjjjjjjkmkmiiiiinmjjjjjjjjjjmh#bcefffg",
".......gebanniiimmmmiinacbabb#niimmmiiiinn#beg....",
".......gijjjjjjjjjjjjjjjjjjjjjjjjjjjjjjjkn#beg....",
"hhhh###hjkkkkkkkkkkkkkkkkkkkkkkkkkkkkkkkjnhaceffgg",
"aaabbbbajllllllllllllllllllllllllllllllijn#bdfgggg",
"........jilililillillilllllllllllllllllkjn#beg....",
"cccccccbijjjjjjjjjjjjjjjjjjjjjjjjjjjjjjjmn#bdfgggg",
"hhhhhhhhhnnimmmmmmmmmmmmmmmmmmmmmmmmmmmiinhabdfffg",
".......gdb#nniimmimimiiiiiiiiiiiiiiiiiiinn#beg....",
".......geb#nniiiiiiiiiiiiiiiiiiiiiiiiiiinn#beg....",
"hhhhh##hhhnniiiiiiiiiiiiiiiiiiiiiiininnnnh#bceffgg",
"bbbbbbbbba#hhhnhnnhnhnhnhhhhhhhhhhhhhnhh#abdfggggg",
"........ggfdcbbbbbbbbbbbbbbbbbbbbbbbbbbbddfgg.....",
"bbbbbbccccbbbbbbbbbbbbccccccccccdddddddeeffggggggg",
"hhhhhhhhhh#########aaaaaaaabbbbccccccdddeeeeefffff",
"..................................................",
"..................................................",
"hhhhhhhh##########aaaaaaaabbbbbcccccddddeeeeeffffg",
"bbbbbbbbbbccccccccccdddddeeeeeeeffffffgggggggggggg",
"..................................................",
"bbbbbbccccccccccddddddeeeeeeeefffffffggggggggggggg",
"hhhhhhhhhh#########aaaaaaaabbbbccccccddddeeeefffff",
".................................................."};
