/* XPM */
static const char *xpm_8[]={
"50 50 16 1",
"h c #312b32",
"n c #6f676f",
"i c #785c51",
"l c #8c8184",
"g c #a4999d",
"m c #baaeb1",
"k c #be9956",
"f c #ccbdcf",
"# c #d5c6d4",
"a c #e1d2dc",
"b c #e9dae1",
"c c #efe0e5",
"j c #f4b861",
"d c #f6e7ea",
"e c #fcedee",
". c #fff0ef",
"..................................................",
"..................................................",
"############aaaaaaaaaaabbbbbbbccccccccddddddddddee",
"aaaaaaaaaaaaaabbbbbbbbbcccccccccddddddddddddddeeee",
"..................................................",
"cddddddddddddddddddddddddddddeeeeeeeeeeeeeeeeeeeee",
"ffffffffff#########aaaaaaaaabbbbbbccccccdddddddddd",
"eeeeeeeeeeeeeeeeeeeeeeeeeeeeeee...................",
"..................................................",
"###########aaaaaaaaaaabbbbbbbbcccccccdddddddddddee",
"aaaaaaaaaababbghhhgghhhhgcghhhhgdddddddddddddeeeee",
"..............hiiihhijjjhihkjjihee................",
"cccccccccddddghjjjhhjjjjihkjjjkhccddeeeeeeeeeeeeee",
"fffffffff###lhkkkjhkjkjkiljjkjkh#aabccccdddddddddd",
"eeeeeeeeee..hijjjjjjkhkjkjjhijkh#acde.............",
"...........ghjjijjjjhhkjjjhhijkhm#ace.............",
"f#########ghlkihjjjhhhkjjihhijkhgmfabcddddddddddde",
"aaaaaaaabbhhjkhhjjihhhkjkhhhijkhgmfacddddddeeeeeee",
"..........hkjhhhjjhhnhkjihnhijkhgm#bd.............",
"ccccccccccghhhhhjjhhihkjihnhijkhlmfadeeeeeeeeeeeee",
"ffffffffffflhnhhjkhhnhkjihnhijkhlgm#bcccdddddddddd",
".........edb#mhhjjhhnhkjihlhijkhgm#bd.............",
".........edbamhijjhhnhkjihlhijkhgm#bd.............",
"ffff#######fmmhhjjhhnhkjihlhijkhlmm#bcdddddddddddd",
"aaaaaaaabbaa#fhhjjhhlhkjihlhijkhgmfacddddddeeeeeee",
"..........eddbhijjhhlhkjihghijkhgm#bd.............",
"cccccccccccccbhhjjhhlhkjihlhijkhgmfadeeeeeeeeeeeee",
"fffffffff####fhhjkhhnhkjihlhijkhlgmaghhgdddddddddd",
".............ehhjjhhlhkjihghijkhgm#bhijhee........",
".............dhhjjhhlhkjihlhijkhgm#ghjjhedee......",
"ffff##########hhjjhhnhkjihlhijkhgglhkjlhbbccdddddd",
"aababbbbbbbbbahhjjhhlhkjihlhijkhnhhljjhhaabcdeeeee",
".............ehijjhhlhkjihghijkhhhjjjjhhf#bce.....",
"bbbbcccccccccbghhihilhhhhhlhijkhijjjjjhhmfabdeeeee",
"fffffffff####fflhhinlnhhhnlhijkhhhhjjjhhgmfacddddd",
".............db#mglgggmmggghijjhhhjjhjihgm#bd.....",
".............ecafmggmmmmmmmhhjjihkjihihhgm#bd.....",
"fffff##########fmmgggmmmmgmnhkjjjjlhhhhilmfacddddd",
"bbbbbbbbbbbbbbba#fffff#ffffflhkjkihinnnlgm#bdeeeee",
"..............edccbbbbbbbbaaflhhhhinlllgmface.....",
"bbbbbbbbbbcccccbbbbbbbbbbbaa#mglllllllggm#acdeeeee",
"fffffffff###########aaaaaaa##mmgllllggmmfaabcddddd",
"...........................dca#mmggmmf#abcde......",
"...........................edca#ffff#abcddee......",
"fffffff##########aaaaaaaaabbaa##fff##abbccdddddddd",
"bbbbbbbbbbbbbcccccccccccddcddccbbbbbccddeeeeeeeeee",
"...............................eeddee.............",
"bbbbbbbbbbccccccccccccddddddddddddddddddeeeeeeeeee",
"fffffffff##########aaaaaaaabbbbbbccccccccddddddddd",
".................................................."};
