/* XPM */
static const char *xpm_9[]={
"50 50 16 1",
"j c #353136",
"m c #847b82",
"k c #856d54",
"i c #a59a9c",
"n c #beb2b7",
"h c #cdbdd1",
"# c #d7c7d7",
"a c #e2d2dd",
"b c #e9dae2",
"c c #eedfe5",
"l c #efb661",
"d c #f1e2e7",
"e c #f4e5e9",
"f c #f7e8ea",
"g c #fbeced",
". c #fff0ef",
"..................................................",
"..................................................",
"############a#aaaaaaaaabbbbbbbccccddddeeeefffffggg",
"a#aaaaaaaaaaaabbbbbbbbbcccccddddeeeeeefffffggggggg",
"..................................................",
"deeeeeeeeeeeeefffffffffffggggggggggggggggggggggggg",
"hhhhhhhhhhh##########aaaaaaabbbbbbccccddeeeeefffff",
"gggggggggggggggggggg.gggggggggg...................",
"..................................................",
"h############aaaaaaaaabbbbbbbbccccdddeeeeefffffggg",
"aaaaaaaaababbbbbbbbbbcccccddddeeijjjifffffgggggggg",
"...............................ijklijgg...........",
"cddddddddeeeeeeeeeefffffffffgijjkllkjceffggggggggg",
"hhhhhhhhhh##########aaaaaijjjjkllllkj#abcdeeeffffg",
"gggggggggg..............ijkillllllljm#acfg........",
"........................kkllllllllljnn#bdg........",
"hh#############aaaaaaaaaijjjjjllllkjiin#bdefffffgg",
"aaaaaaaabbbbbbbbbbccccccbba#jkllllkjminabegggggggg",
"........................gebijllkklkjminadg........",
"cccccccddddddddeeeeeeeeedbijllljjlljmihadggggggggg",
"hhhhhhhhhh##########aaaaa#jklljjjiljmin#bdeeeffffg",
"........................gijllkjmjjljmn#bf.........",
"........................ijllljkmmjjkin#bf.........",
"hhhh############aaaaaaaijklljkimmmmmin#aceefffffgg",
"aaaaaaaaabbbbbbbbbbccccjkllkjiiiiiinnh#beggggggggg",
"..............iki.....ijllijmiiinnhh#abeg.........",
"cccccccddddddijkjideeijllljmiiinnh#aabcdfggggggggg",
"hhhhhhhhh####jilkji##jkllkjiiiinh#aaabbcdeeeeffffg",
".............jlllljjkjllkjkiiin#bdfffggg..........",
".............ijklllkjllljmiiinhacfg...............",
"hhhh##########mjjlllilljkimiinh#bccdddeeeeefffffgg",
"aaababbbbbbbba#hmjklllkjkiiinhabdefffffggggggggggg",
"............geb#njjllllkjkinhacf..................",
"bbbbcccccccccba#njklllllljkn#aceffgggggggggggggggg",
"hhhhhhhhh####hhnmjllkjkllljjmaabbbcccdddeeeeeffffg",
".............gfcjllljjjklllkjcfg..................",
"..............gfjlljkmjjjllkjbdfg.................",
"hhhhh###########mjjkmmkkjjkjmh#abcccdddeeeeeffffgg",
"bbbbbbbbbbbbbcccb#hiimmmmkjknn#bdeffffgggggggggggg",
"...............geb#nniiiiiiinhabfg................",
"bbbbbbbbbbcccccbba#hnnnnnnnnnn#aceffgggggggggggggg",
"hhhhhhhhhh#######hhnnnnhnnnnnn##abcccdddeeeeefffff",
"................gfdcbccccbaaabbef.................",
"................ggffeffffedcccefg.................",
"hhhhhhhh############aaaaaaaaaabbbcccddddeeeeeffffg",
"bbbbbbbbbbbbbccccccddcddddddeeeeffffffgggggggggggg",
"..................................................",
"bbbbbbbbbbcccccccdddddeeeeeeeefffffffggggggggggggg",
"hhhhhhhhhh#########aaaaaaaabbbbbbcccccdddeeeefffff",
".................................................."};
